# xmcd
#
# Track frame offsets:
#	150
#	12713
#	28001
#	41343
#	55733
#	66771
#	80422
#	95414
#	107275
#	122636
#	140650
#	153740
#	168211
#	183530
#	194028
#	206573
#	219103
#	231370
#	251202
#	261729
#
# Disc length: 3625 seconds
#
# Revision: 0
# Processed by: cddbd v1.5.2PL0 Copyright (c) Steve Scherf et al.
# Submitted via: EasyCDDAExtractor 15.3.0.1
#
DISCID=260e2714
DTITLE=Campbell Glen - Glen Travis Campbell-I Knew Jesus-I Remember Hank Willi
DTITLE=ams Cd 1
DYEAR=1900
DGENRE=
TTITLE0=I Will Never Pass This Way Again
TTITLE1=One Last Time
TTITLE2=Sweet Fantasy
TTITLE3=She Thinks I Still Care
TTITLE4=Running Scared
TTITLE5=Someone To Give My Love To
TTITLE6=All My Tomorrows
TTITLE7=My Cricket
TTITLE8=Just For What I Am
TTITLE9=Last Thing On My Mind
TTITLE10=I Knew Jesus (Before He Was A Star)
TTITLE11=I Take It On Home
TTITLE12=Sold American
TTITLE13=I Want To Be With You Always
TTITLE14=If Not For You
TTITLE15=Give Me Back That Old Familiar Feeling
TTITLE16=You're The One
TTITLE17=Amazing Grace
TTITLE18=On This Road
TTITLE19=Someday Soon
EXTD=
EXTT0=
EXTT1=
EXTT2=
EXTT3=
EXTT4=
EXTT5=
EXTT6=
EXTT7=
EXTT8=
EXTT9=
EXTT10=
EXTT11=
EXTT12=
EXTT13=
EXTT14=
EXTT15=
EXTT16=
EXTT17=
EXTT18=
EXTT19=
PLAYORDER=
